<svg width="128px" viewBox="0 0 150.3 107.3" xmlns="http://www.w3.org/2000/svg"><g transform="translate(-50 -50)" style="fill:#fff"><rect style="fill:#fff;stroke-width:2.3;stroke-linecap:round;stroke-linejoin:round;stroke-dasharray:none;stroke-opacity:1" width="148" height="105" x="51.15" y="51.15" rx="1" ry="1"/><rect style="fill:#fff;stroke-width:2.5;stroke-linecap:round;stroke-linejoin:round;stroke-dasharray:none;stroke-opacity:1" width="21" height="24" x="168.15" y="61.15" rx="1" ry="1"/></g><path style="fill:none;stroke-width:2.5;stroke-linecap:round;stroke-linejoin:round;stroke-dasharray:none;stroke-opacity:1" d="m86.883 93.636 7.5 7.5v0M94.383 93.636l-7.5 7.5" transform="translate(3.267 -32.486)"/><path style="fill:none;stroke-width:2.5;stroke-linecap:round;stroke-linejoin:round;stroke-dasharray:none;stroke-opacity:1" d="m86.883 93.636 7.5 7.5v0M94.383 93.636l-7.5 7.5" transform="translate(-34.233 -32.486)"/><path style="fill:none;stroke-width:2.5;stroke-linecap:round;stroke-linejoin:round;stroke-dasharray:none;stroke-opacity:1" d="M90.633 109.317h30v3.75s0 3.75-3.75 3.75-3.75-3.75-3.75-3.75v-3.75" transform="translate(-30.483 -33.167)"/><g><path style="fill:none;stroke-width:2.5;stroke-linecap:round;stroke-linejoin:round;stroke-dasharray:none;stroke-opacity:1" d="M125.5 67.679s3.75-3.75 7.5-3.75 7.5 3.75 7.5 3.75 3.75 3.75 7.5 3.75 7.5-3.75 7.5-3.75M125.5 75.179s3.75-3.75 7.5-3.75 7.5 3.75 7.5 3.75 3.75 3.75 7.5 3.75 7.5-3.75 7.5-3.75" transform="translate(-29.85 -48.279)"/></g></svg>